/* XPM */
static char *de94568b90984eceadc1329680d4c412aNsv4TMKVreYjFdH[] = {
/* columns rows colors chars-per-pixel */
"64 64 186 2 ",
"   c None",
".  c gray14",
"X  c #252525",
"o  c #282424",
"O  c #282525",
"+  c #262F2F",
"@  c #2F2F2F",
"#  c #262F30",
"$  c #272F30",
"%  c #273030",
"&  c #283031",
"*  c gray19",
"=  c #313131",
"-  c #323030",
";  c #323232",
":  c gray20",
">  c gray21",
",  c #5B2119",
"<  c #5D221A",
"1  c #5E221A",
"2  c #5F221A",
"3  c #60231A",
"4  c #63241B",
"5  c #64241B",
"6  c #65241B",
"7  c #66251B",
"8  c #66251C",
"9  c #67251C",
"0  c #68251C",
"q  c #6A261C",
"w  c #6A261D",
"e  c #6B261D",
"r  c #6B271D",
"t  c #6C261D",
"y  c #6C271D",
"u  c #6D271D",
"i  c #6E271D",
"p  c #6E271E",
"a  c #6F281E",
"s  c #70281E",
"d  c #71281E",
"f  c #71291E",
"g  c #72281E",
"h  c #72291E",
"j  c #72291F",
"k  c #73291F",
"l  c #732A1F",
"z  c #74291F",
"x  c #75291F",
"c  c #742A1F",
"v  c #752A1F",
"b  c #762A1F",
"n  c #493230",
"m  c #493331",
"M  c #4A3230",
"N  c #762A20",
"B  c #772A20",
"V  c #772B20",
"C  c #782A20",
"Z  c #782B20",
"A  c #792B20",
"S  c #7A2B20",
"D  c #7A2B21",
"F  c #7A2C21",
"G  c #7B2C21",
"H  c #7C2C21",
"J  c #7D2C21",
"K  c #7E2D21",
"L  c #7E2D22",
"P  c #7F2D22",
"I  c #812E22",
"U  c #812E23",
"Y  c #822E23",
"T  c #832F23",
"R  c #842F23",
"E  c #852F23",
"W  c #862F24",
"Q  c #863024",
"!  c #873024",
"~  c #883024",
"^  c #893024",
"/  c #883124",
"(  c #893125",
")  c #8A3125",
"_  c #8B3125",
"`  c #8C3125",
"'  c #8C3225",
"]  c #8C3226",
"[  c #8D3226",
"{  c #8E3226",
"}  c #8F3226",
"|  c #8E3326",
" . c #8F3326",
".. c #903326",
"X. c #903327",
"o. c #913327",
"O. c #913427",
"+. c #923427",
"@. c #933427",
"#. c #943427",
"$. c #943527",
"%. c #933428",
"&. c #943428",
"*. c #953428",
"=. c #943528",
"-. c #953528",
";. c #963528",
":. c #973528",
">. c #953628",
",. c #963628",
"<. c #973628",
"1. c #973629",
"2. c #983528",
"3. c #983629",
"4. c #993629",
"5. c #9A3629",
"6. c #9A3729",
"7. c #9C3729",
"8. c #9C372A",
"9. c #9D382A",
"0. c #9E382A",
"q. c #9F382B",
"w. c #A0392B",
"e. c #A1392B",
"r. c #A2392B",
"t. c #A3392B",
"y. c #A33A2B",
"u. c #A43A2C",
"i. c #A53A2C",
"p. c #A93C2D",
"a. c #AA3C2D",
"s. c #AA3C2E",
"d. c #AB3C2E",
"f. c #AC3D2E",
"g. c #AD3D2E",
"h. c #AE3D2E",
"j. c #AF3E2F",
"k. c #B03E2F",
"l. c #B13F2F",
"z. c #B33F30",
"x. c #B44030",
"c. c #B54030",
"v. c #B64031",
"b. c #B84131",
"n. c #B94131",
"m. c #BB4232",
"M. c #BC4232",
"N. c #BE4333",
"B. c #C04433",
"V. c #C14433",
"C. c #C24433",
"Z. c #C14434",
"A. c #C04535",
"S. c #C14535",
"D. c #C24434",
"F. c #C24534",
"G. c #C34534",
"H. c #C44534",
"J. c #C54534",
"K. c #C44535",
"L. c #C54535",
"P. c #C64535",
"I. c #C54634",
"U. c #C44635",
"Y. c #C54635",
"T. c #C64635",
"R. c #C74635",
"E. c #C74735",
"W. c #C64636",
"Q. c #C74736",
"!. c #C84735",
"~. c #C84736",
"^. c #C94736",
"/. c #CA4736",
"(. c #CA4836",
"). c #CB4836",
"_. c #CB4837",
"`. c #CC4837",
"'. c #D04A38",
"]. c #D24A38",
"[. c #D34B38",
"{. c #D34B39",
"}. c #D44B39",
"|. c #D64C39",
" X c #D74C39",
".X c #D74C3A",
/* pixels */
"                                                                                                                                ",
"                                                                                                                                ",
"                                ;                                                                                               ",
"                            ; ; ; ;                                                                                             ",
"                          ; > ; ; ; ;                                                                                           ",
"                            ; ; ; ; ; ;                                                                                         ",
"                              ; ; ; ; ;                                                                                         ",
"                              @ ; ; ; ;                                                                                         ",
"                              . . . ; ;                                                                                         ",
"                              o o o ; ;                                                                                         ",
"                              + % $ & $                                                                                         ",
"                              M M M M M                   T.T.T.T.T.T.T.T.T.T.T.T.T.T.T.T.T.T.T.T.                              ",
"                          T.T.D.D.D.D.D.T.T.T.          T. X^.^.^.^.^.^.^.^.^.^.^.^.^.^.^.^.^.^. XT.                            ",
"                          T.`.T.T.T.T.T.^.`.T.        T. XT.T.T.T.^.^.^.^.^.^.^.^.^.^.^.T.T.T.T.T. XT.                          ",
"                          T.^.T.T.T.T.T.T.^.T.        T.).T.T.^.T.T.T.T.T.T.T.T.T.T.T.T.T.^.T.T.T.).T.                          ",
"                          T.T.D.D.D.D.D.D.T.T.        T.T.T.).T.                          T.).T.T.T.T.                          ",
"                            Z Z Z Z Z Z Z Z           [.T.T.}.T.                          T.}.T.T.T.[.                          ",
"                            y a y y y e y e         T.[.T.T.[.                              [.T.T.T.[.T.                        ",
"                            k v k k B Z Z Z         T.`.T.T.[.                              [.T.T.T.`.T.                        ",
"                        &.&.$.O.&. .l.T.D.C.T.T.T.T.T.T.T.T.T.^.T.T.T.T.T.T.T.T.T.T.T.T.T.^.T.T.T.T.^.T.                        ",
"                        &.4.&.&.&.O.l.).T.^.^.).).^.T.T.T.T.T.T.^.^.^.^.^.^.^.^.^.^.^.^.^.T.T.T.T.T.^.T.                        ",
"                        &.&.&.&.O. .r.T.D.D.D.D.D.D.D.D.D.D.D.D.D.T.T.T.T.T.T.T.T.T.T.T.T.T.T.T.T.T.^.T.                        ",
"                        &.4.&.G k k k B v B B B B B B B B B B v H D.T.T.T.E _ T.T.^.T.D.D.D.D.D.D.T.^.T.                        ",
"                        &.4.O.k y k k v B v B B B B B B B B B v H D.T.).r.3 B C.^.l.G Z Z Z Z B H D.).T.                        ",
"                        &.4.O.k a k _ z.T.D.D.D.D.D.D.D.D.D.D.D.D.T.^.M.k y Z D.T.Z 9 a y y y e B C.).T.                        ",
"                        &.4.O.k k y Z d.^.T.T.T.T.T.T.T.T.T.T.T.T.T.^. .e a Z D.D.Z a k k k k y Z D.).T.                        ",
"                        &.4.O.k k k e ..T.T.T.T.T.T.T.T.T.T.T.T.T.^.g.9 v k B D.D.B y k k k k y Z D.).T.                        ",
"                        &.4.O.k v E y k m.^.T.T.T.T.T.T.T.T.T.T.T.D.H 7 r.H v D.D.Z y k k k k y Z D.).T.                        ",
"                        &.4.O.k k &.G 7 4.).T.T.T.T.T.T.T.T.T.T.).q.2 _ T.v v D.D.Z y k k k k y Z D.).T.                        ",
"                        &.4.O.k k &. .y k m.^.T.T.T.T.T.T.T.T.^.m.y y m.T.v v D.D.Z y k k k k y Z D.).T.                        ",
"                        &.4.O.k k O.4.Y 7  .^.T.T.T.T.T.T.T.T.^. .2 7.).D.B v D.D.Z y k k k k y Z D.).T.                        ",
"                        &.4.O.k k O.&.O.v 7 g.).T.T.T.T.T.T.).d.4 H D.^.D.B v D.D.Z y k k k k y Z D.).T.                        ",
"                        &.4.O.k k $.&.&._ e G D.T.T.T.T.T.T.D.Z 7 g.^.T.D.B v D.D.Z y k k k k y Z D.).T.                        ",
"                        &.4.O.k k O.&.&.&.H 4 7.).T.T.T.T.).4.2 ..^.T.T.D.B v D.D.Z y k k k k y Z D.).T.                        ",
"                        &.4.O.k k O.&.&.&. .k y m.^.T.T.^.c.e k M.^.T.T.D.B v D.D.Z y k k k k y Z D.).T.                        ",
"                        &.4.O.k k O.&.&.&.&.E 7 _ T.T.T.^._ 2 r.).T.T.T.D.B v D.D.Z y k a k k y Z D.).T.                        ",
"                        &.4.O.k k O.&.&.&.&.&.B 7 d.^.^.r., E T.T.T.T.T.D.B v D.D.Z y k a k k y Z D.).T.                        ",
"                        &.4.O.k k O.&.&.&.&.&._ e B C.^.g.B z.^.T.T.T.T.D.B v D.D.Z y k a k k y Z D.).T.                        ",
"                        &.4.O.k k $.&.&.&.&.&.&.H 4 4.^.^.T.T.T.T.T.T.T.D.B v D.D.B y k k k k y Z D.).T.                        ",
"                        &.4.O.k k O.&.&.&.&.&.&...k e c.^.T.T.T.T.T.T.T.D.B v D.D.Z y k k a k y Z D.).T.                        ",
"                        &.4.O.k k $.&.&.&.&.&.&.&.! 9 E T.T.T.T.T.T.T.T.D.B v D.D.Z y k k k k y Z D.).T.                        ",
"                        &.4.O.k k O.&.&.&.&.&.&.&.&.Z 7 q.).T.T.T.T.T.T.D.B v D.D.Z y k k k k y Z D.).T.                        ",
"                        &.4.O.k k O.&.&.&.&.&.&.&.&. .a e d.^.T.T.T.T.T.D.B v D.D.Z y k k k k y Z D.).T.                        ",
"                        &.4.O.k k O.&.&.&.&.&.&. .&.&.H e Z g.^.T.T.T.T.D.B v D.D.Z y k a k k y Z D.).T.                        ",
"                        &.4.O.k k O.&.&.&.&.4. .e H &.O.k y ! g.T.T.T.T.D.B v D.D.Z y k a k k y Z D.).T.                        ",
"                        &.4.O.k k O.&.&.&.&.&.B e ! &.&.! e Z ..u.T.^.T.D.B v D.D.Z y k a k k y Z D.).T.                        ",
"                        &.4.O.k k O.&.&.&.&.Y e Z &.&.&.&.Z e ! %.7.M.^.D.v v D.D.Z y k k a k y Z D.).T.                        ",
"                        &.4.O.k k O.&.&.&. .k a  .&.&.&.&. .y k O.&.&.c.D.B v D.D.Z y k k a k y Z D.).T.                        ",
"                        &.4.O.k k O.&.&.&.G e Y 4.&.&.&.&.&.Y e H &.&.O.r.v B D.D.Z y k k k k y B D.).T.                        ",
"                        &.4.O.k k O.&.&._ y v %.&.&.&.&.&.&.$.v y _ &.&...k v D.T.Z y k k k k y B D.).T.                        ",
"                        &.4.O.k k O.&.O.v y _ &.&.&.&.&.&.&.&._ y v &.&.%.k k 4.g.Z y k k k k y B D.).T.                        ",
"                        &.4.O.k k O.4.Y e H &.&.&.&.&.&.&.&.&.&.G e Y 4.O.v v O...k a k k k k y B C.^.T.                        ",
"                        &.4.O.k k &. .y k ..&.&.&.&.&.&.&.&.&.&. .a a  .&.O.O.&.%.k a k k k k y Z D.).T.                        ",
"                        &.4.O.v v &.Z e Y &.&.&.&.&.&.&.&.&.&.&.&.Y e G &.&.&.&.O.k a a k k k y B m.^.T.                        ",
"                        &.4.&.O.&.! e B &.&.&.&.&.&.&.&.&.&.&.&.&.&.v y _ &.&.&.O.k a a k k k a k O.r.u.                        ",
"                        &.&.&.&.O.k y _ &.&.&.&.&.&.&.&.&.&.&.&.&.&._ y v O.&.&.O.k a k k k k a k O.&...                        ",
"                        &.&.&.&.H e H &.&.&.&.&.&.&.&.&.&.&.&.&.&.&.&.H e Y &.&.O.k a k k k k a k O.4.&.                        ",
"                        &.&.&. .y k  .&.O.O.O.O.O.O.O.O.O.O.O.O.O.O.&...k y  .&.O.k y a a a a y k O.4.&.                        ",
"                        &.4.&.B y k k k k k k k k k k k k k k k k v O.4.E e Y &.O.v k k k k k k v O.4.&.                        ",
"                        &.&.$.Z k k k k k k k k k k k k k k k k k v $.&.O._ &.&.&.O.O.O.O.O.O.O.O.&.&.&.                        ",
"                        &.q.&.4.&.&.&.&.&.&.&.&.&.&.&.&.&.&.&.&.&.&.&.&.4.4.4.&.4.4.4.4.4.4.4.4.4.&.q.&.                        ",
"                          &.&.&.&.&.&.&.&.&.&.&.&.&.&.&.&.&.&.&.&.&.&.&.&.&.&.&.&.&.&.&.&.&.&.&.&.&.&.                          ",
"                                                                                                                                ",
"                                                                                                                                "
};
