/* XPM */
static char *_d3036b66ad24897c5cd7db878310ceeXy55xvzYoyOpghWL[] = {
/* columns rows colors chars-per-pixel */
"64 64 181 2 ",
"   c None",
".  c #3F3F3F",
"X  c #3F4040",
"o  c #454545",
"O  c #4A4A4A",
"+  c #584D4D",
"@  c #5E5D5D",
"#  c #615C5C",
"$  c #5F7171",
"%  c #6E6E6E",
"&  c #726E6E",
"*  c #647070",
"=  c #6C7979",
"-  c #667979",
";  c #757575",
":  c #7A7676",
">  c #747A7A",
",  c #7E7E7E",
"<  c #E71F11",
"1  c #E7251B",
"2  c #E72E2B",
"3  c #E82D27",
"4  c #E7312E",
"5  c #E83D3B",
"6  c #E83734",
"7  c #F64500",
"8  c #F6480D",
"9  c #F64813",
"0  c #F44A1D",
"q  c #F14B2A",
"w  c #EF4A34",
"e  c #EE4B3C",
"r  c #E8413D",
"t  c #F04A33",
"y  c #F04F3A",
"u  c #E63C55",
"i  c #E83A54",
"p  c #8B4848",
"a  c #AC4C4C",
"s  c #996A6A",
"d  c #906A6A",
"f  c #877878",
"g  c #A06F6F",
"h  c #AC6868",
"j  c #BB6767",
"k  c #A1706D",
"l  c #CB4F4F",
"z  c #C35F5F",
"x  c #DD5757",
"c  c #DA5B5B",
"v  c #E84543",
"b  c #ED4E44",
"n  c #E84B4B",
"m  c #F54F4E",
"M  c #EA514C",
"N  c #ED5043",
"B  c #F1504D",
"V  c #E84354",
"C  c #EA4C53",
"Z  c #E74D54",
"A  c #E55454",
"S  c #E95353",
"D  c #EC5954",
"F  c #E6555A",
"G  c #E95959",
"H  c #E55858",
"J  c #F25454",
"K  c #F65959",
"L  c #F95959",
"P  c #F35854",
"I  c #EC6E4F",
"U  c #EA605F",
"Y  c #DE5D6B",
"T  c #DA5C70",
"R  c #E25A66",
"E  c #F05F6D",
"W  c #D8647A",
"Q  c #ED6262",
"!  c #EB686A",
"~  c #F96767",
"^  c #FE6B6B",
"/  c #F0606E",
"(  c #F06172",
")  c #EC7778",
"_  c #EB6F71",
"`  c #FFB600",
"'  c #FFB81D",
"]  c #FFB823",
"[  c #FFBB3C",
"{  c #FFED0E",
"}  c #FFF007",
"|  c #FFE41C",
" . c #FBCE2E",
".. c #F9C633",
"X. c #FAC932",
"o. c #EF9048",
"O. c #F09147",
"+. c #F3A243",
"@. c #FFD646",
"#. c #FFC05A",
"$. c #FFD651",
"%. c #FFC263",
"&. c #FFDA6B",
"*. c #FEDB7D",
"=. c #B87BA7",
"-. c #B77CB8",
";. c #AF7DBB",
":. c #D16985",
">. c #D46886",
",. c #D2749E",
"<. c #CA7199",
"1. c #E67383",
"2. c #C875A7",
"3. c #C679AB",
"4. c #D47AA1",
"5. c #AB7FC0",
"6. c #248BDF",
"7. c #008EE6",
"8. c #0E8BE2",
"9. c #008FE9",
"0. c #148CE2",
"q. c #198EE2",
"w. c #0091EA",
"e. c #0095E9",
"r. c #1F91E3",
"t. c #248CE1",
"y. c #2A8CE0",
"u. c #2393E4",
"i. c #2D99E7",
"p. c #2C98E7",
"a. c #329AE7",
"s. c #339DE9",
"d. c #3997E5",
"f. c #1AA3EE",
"g. c #00A6F1",
"h. c #00A9F7",
"j. c #06A5EF",
"k. c #23A4EE",
"l. c #2CA3EC",
"z. c #35A1EB",
"x. c #3BA2EB",
"c. c #5288D7",
"v. c #7284CE",
"b. c #7498D9",
"n. c #6B8DD6",
"m. c #489EE7",
"M. c #589DE3",
"N. c #42A1EA",
"B. c #46A1E9",
"V. c #808080",
"C. c #9E88BF",
"Z. c #AA83B5",
"A. c #ED888B",
"S. c #EE9494",
"D. c #EFA3AA",
"F. c #F1A5A7",
"G. c #F1AFB5",
"H. c #F3B9BE",
"J. c #FFCC8A",
"K. c #FFDE89",
"L. c #FFCF90",
"P. c #FFEAB3",
"I. c #8588CB",
"U. c #9584CA",
"Y. c #9989C6",
"T. c #8994D4",
"R. c #A682C5",
"E. c #F8DADC",
"W. c #F8D7D7",
"Q. c #F5C9CE",
"!. c #FFEACE",
"~. c #FFEDD9",
"^. c #FFF2D5",
"/. c #F8DFE2",
"(. c #FAE7EA",
"). c #FFF3E4",
"_. c #FFF8E8",
"`. c #FBEDF0",
"'. c #FFFCF4",
"]. c #FFFFFF",
"[. c #FEF5F3",
/* pixels */
"                                                                                                                                ",
"                                                                                                                                ",
"                                                                                                                                ",
"                                                                                                                                ",
"                                                                                                                                ",
"                                                                                                                                ",
"                                                                                                                                ",
"                                            7 7 9 0 q q t w w t t w w t q q 0 9 7 7                                             ",
"                              8 M T >.,.2.3.-.;.5.R.R.U.U.U.U.U.U.U.U.U.U.R.R.5.;.-.3.2.,.>.T M 8                               ",
"                            M 2.v.6.7.w.w.9.w.w.w.w.w.w.w.w.w.w.w.w.w.w.w.w.w.w.w.w.w.w.w.7.6.v.2.M                             ",
"                          ( v.w.7.8.t.y.y.y.y.y.y.y.y.y.t.t.y.y.y.y.t.y.y.y.y.y.y.y.y.y.y.t.8.7.w.v.(                           ",
"                        E c.9.y.t.q.q.0.i.x.x.u.0.q.q.q.p.u.q.q.q.0.u.x.a.q.q.q.q.0.0.0.q.q.q.t.y.9.c./                         ",
"                      N I.e.m.s.r.q.q.q.z.x.x.i.0.q.0.a.x.x.u.0.q.q.s.x.x.u.0.q.q.u.a.r.0.q.0.q.s.m.e.I.N                       ",
"                    9 ,.9.d.x.x.i.0.q.q.z.x.x.i.0.q.q.s.x.x.i.0.q.q.s.x.x.u.0.q.r.x.x.s.q.q.0.p.x.x.d.9.,.9                     ",
"                    A n.7.a.x.x.i.0.q.q.z.x.x.i.0.q.q.s.x.x.i.0.q.q.s.x.x.u.0.0.u.x.x.z.q.q.0.i.x.x.a.7.n.A                     ",
"                  8 2.w.y.i.x.x.i.0.q.q.z.x.x.i.0.q.q.s.x.x.i.0.q.q.s.x.x.u.0.q.u.x.x.z.q.q.0.i.x.x.i.y.w.2.8                   ",
"                  A c.7.q.a.x.x.i.0.q.q.z.x.x.i.0.q.q.s.x.x.a.0.q.q.s.x.x.u.0.q.u.x.x.s.q.q.0.i.x.x.a.q.7.c.A                   ",
"                7 3.e.6.0.s.x.x.i.8.q.q.x.x.x.a.8.q.q.z.x.x.a.0.q.q.s.x.x.u.0.0.u.x.x.x.r.8.0.s.x.x.a.8.y.w.3.7                 ",
"                M b.f.p.s.x.x.x.x.u.q.p.x.x.x.x.u.q.i.x.x.x.s.q.8.u.x.x.x.i.0.0.i.x.x.x.s.p.a.x.x.x.x.u.t.e.b.M                 ",
"  Q Q Q Q       4.g.N.x.x.x.x.x.x.x.z.x.x.x.x.x.x.x.x.x.x.x.x.s.a.x.x.x.x.x.s.s.x.x.x.x.x.x.x.x.x.x.x.x.x.N.g.,.      Q Q Q Q   ",
"Q ~ Q Q ^ Q   e T.g.N.x.x.x.x.x.x.x.x.x.x.x.x.x.x.x.x.x.x.x.x.x.x.x.x.x.x.x.x.x.x.x.x.x.x.x.x.x.x.x.x.x.x.N.g.T.e   Q ^ Q Q ~ Q ",
"Q ^ Q Q ~ !   1.l.B.N.B.N.N.N.N.x.x.x.x.x.x.x.x.x.x.x.x.x.x.x.x.x.x.x.x.x.x.x.x.x.x.x.x.x.x.x.x.N.N.N.N.N.N.B.l.1.  ! ~ Q Q ^ Q ",
"  Q Q ~ ^ ! y Y.h.g.g.g.g.g.g.g.f.f.k.l.l.z.z.x.x.x.x.x.x.x.x.x.x.x.x.x.x.x.x.x.x.z.z.l.l.k.k.f.g.g.g.g.g.g.j.h.Y.y ! ^ ~ Q Q   ",
"            S :.<.=.=.Z.C.Y.I.T.b.b.b.M.M.M.m.x.x.x.x.z.l.l.k.f.f.k.l.l.z.x.x.x.x.m.M.M.M.b.b.b.T.I.Y.C.Z.=.=.<.:.S             ",
"            K b e w t t w w e b b S A F R R Y W W W W W W :.:.:.:.:.:.W W W W W W Y R R F A S b b e w w t t w e b K             ",
"          S K G G G F F F F A A A S S M M M M M b b b b b b b b b b b b b b b b M M M M S S S A A A F F F F G G G K S           ",
"          P G 5 3 v G G S S S S S S S S A A A A A A A A A A A A A A A A A A A A A A A A S S S S S S S S G G v 3 5 G P           ",
"        A J 6 A.D.A.4 5 G G S S S S S S S S S S S S S S S S S S S S S S S S S S S S S S S S S S S S G G 5 4 A.D.A.6 J A         ",
"        P G E.).!._./.A.2 5 A A S S S S S S S S S S S S S S S S S S S S S S S S S S S S S S S S A A 5 2 A./._.!.).E.G P         ",
"      G 3 W.^.` ` [ ).].W.S.5 v A S S S S S S S S S S S S S S S S S S S S S S S S S S S S S S A v 5 S.W.].).[ ` ` ^.W.3 G       ",
"    A m _ [.%.[ #.' J.].].].(.) v A S S S S S S S S S S S S S S S S S S S S S S S S S S S S A v ) (.].].].J.' #.[ %.[._ m A     ",
"    K v ) '.%.[ #.' L.].P.K._.`.M S S S S S S S S S S S S S S S S S S S S S S S S S S S S S S M `._.K.P.].L.' #.[ %.'.) v K     ",
"  S K A r (.^.` ` ] ).^.@.&.&.].F.4 c x x x x x x x x x x x x x x x x x x x x x x x x x x c 4 F.].&.&.@.^.).] ` ` ^.(.r A K S   ",
"  S D A n _ E.~.^.'.].^.@.$.*.].F.2 s * & & & & & & & & & & & & & & & & & & & & & & & & * s 3 F.].*.$.@.^.].'.^.~.E._ n A D S   ",
"  A A S A n 3 1.H.E.[.].^.P.'.(.S S c * % % % % % % % % % % % % % % % % % % % % % % % % * c S A (.'.P.^.].[.E.H.1.3 n A S A A   ",
"  S S S S A G v 1 3 Q A.G.Q.H.U n A S h * & & & & & & & & & & & & & & & & & & & & & & * h S A n U H.Q.G.A.U 3 1 v G A S S S S   ",
"  S S S S S S A G G n 5 1 < 1 n A S S H & * * * * * * * * * * * * * * * * * * * * * $ & H S S A n 1 < 3 5 n G G A S S S S S S   ",
"  S D S S S S S S S A A G G G A S S S S z d s s s s s s s s s s s s s s s s s s s s d z S S S S A G G G A A S S S S S S S D S   ",
"  S P S S S S S S S S S S S S S S S S S S S S S S S S S S S S S S S S S S S S S S S S S S S S S S S S S S S S S S S S S S P S   ",
"  S L S S S S S S S S A S S S S S S S S S S S S S S S S S S S S S S S S S S S S S S S S S S S S S S S S S S S S S S S S S L S   ",
"    L S S S S S S S S S S S S A A S S S S A A A A A A A A A A A A A A A A A A A A A A S S S S A A S S S S S S S S S S S S L     ",
"    P S S Z u V V u Z S S A S S S S S S S S S S S S S S S S S S S S S S S S S S S S S S S S S S J S A S S Z u V V u Z S S D     ",
"    A S V o.X.....X.I Z S S c j g g g g g g g g g g g g g g g g g g g g g g g g g g g g g g g g j c S S Z I X.....X.o.V D A     ",
"    x D i +.{ | {  .D S A h ; - = = = - - = = - = - = = = = - - = - = = = = - - - - - - - = = = - ; h A S D  .{ | { +.i D x     ",
"    l P u +.| | X.Z C H f - : : : : ; & & & & & & & & & & & & & & & & & & & & & & & & & & ; : : : : - f H C Z X.| | +.u P l     ",
"    a P i +.} ..S C H f = : ; : ; ; ; ; ; ; ; ; ; ; ; ; ; ; ; ; ; ; ; ; ; ; ; ; ; ; ; ; ; ; : : ; ; : = f H C S ..} +.i P a     ",
"    a D u o...S Z S s - : : ; ; ; ; ; ; ; ; ; ; ; ; ; ; ; ; ; ; ; ; ; ; ; ; ; ; ; ; ; ; ; ; ; ; ; ; ; : - s S Z S ..o.u D a     ",
"    p J S C i C B j - : : : ; : ; ; ; % % % % % % % % % % % % % % % % % % % % % % % % % % ; ; ; ; ; ; ; : - j B C i C S J p     ",
"    + g g g k g g : ; : ; ; ; ; ; ; ; ; ; ; ; ; ; ; ; ; ; ; ; ; ; ; ; ; ; ; ; ; ; ; ; ; ; ; ; ; ; ; ; ; : ; : g g k g g g +     ",
"    o * > = = = = : : , f , V.V.V.V.V.V.V.V.V.V.V.V.V.V.V.V.V.V.V.V.V.V.V.V.V.V.V.V.V.V.V.f , , , V., f , : : = = = = > * o     ",
"    o + # # # # # @ @                                                                                     @ @ # # # # # + o     ",
"    o o . o o o X o .                                                                                     X o X o o o . o o     ",
"    o o o o o o o o o                                                                                     o o o o o o o o o     ",
"    o o o o o o o o o                                                                                     o o o o o o o o o     ",
"    o o o o o o o o o                                                                                     o o o o o o o o o     ",
"    o O O O O O O O o                                                                                     o O O O O O O O o     ",
"      o o o o o o o                                                                                         o o o o o o o       ",
"                                                                                                                                ",
"                                                                                                                                ",
"                                                                                                                                ",
"                                                                                                                                ",
"                                                                                                                                ",
"                                                                                                                                ",
"                                                                                                                                "
};
