/* XPM */
static char *dd801cebe56c4c90e2167ee567283f3ca9xEswGju0APf82V[] = {
/* columns rows colors chars-per-pixel */
"64 64 213 2 ",
"   c None",
".  c #7D4B2A",
"X  c #950100",
"o  c #961600",
"O  c #A01E00",
"+  c #992700",
"@  c #9A2907",
"#  c #9A2E1C",
"$  c #9B2813",
"%  c #9B3015",
"&  c #9B331A",
"*  c #A12C00",
"=  c #A02100",
"-  c #A13712",
";  c #A13408",
":  c #9C1C3F",
">  c #8B1333",
",  c #9B3322",
"<  c #9E3F2F",
"1  c #9D2E3E",
"2  c #8E3F32",
"3  c #9A3A3B",
"4  c #A03D3F",
"5  c #874E2D",
"6  c #8B4B2E",
"7  c #8F4432",
"8  c #9E4233",
"9  c #934637",
"0  c #A3432B",
"q  c #A24733",
"w  c #A0423E",
"e  c #A34F3E",
"r  c #A54938",
"t  c #A4523E",
"y  c #AE7C3D",
"u  c #8C6E2C",
"i  c #DF0048",
"p  c #E0004B",
"a  c #E00044",
"s  c #FF0045",
"d  c #FF004A",
"f  c #FD0F4E",
"g  c #FE1D4C",
"h  c #E20053",
"j  c #E30159",
"k  c #EC015D",
"l  c #E20E5A",
"z  c #F1005F",
"x  c #FF085E",
"c  c #E21C5A",
"v  c #E2155B",
"b  c #FF1A5A",
"n  c #E3225D",
"m  c #EF275A",
"M  c #FF2B54",
"N  c #FF245F",
"B  c #FF2B5E",
"V  c #FE355B",
"C  c #FE3E5C",
"Z  c #F30060",
"A  c #EC1C60",
"S  c #FF3861",
"D  c #E43963",
"F  c #CE2F4D",
"G  c #A74843",
"H  c #A55544",
"J  c #AC5340",
"K  c #A65B4B",
"L  c #A75948",
"P  c #BA514B",
"I  c #AB614F",
"U  c #B9624E",
"Y  c #AD6653",
"T  c #A6695E",
"R  c #A8756C",
"E  c #B97E69",
"W  c #B77A66",
"Q  c #A97C74",
"!  c #FF425C",
"~  c #FD4A5D",
"^  c #F85958",
"/  c #E35757",
"(  c #D17755",
")  c #E37A4E",
"_  c #EB6E52",
"`  c #F36457",
"'  c #F67D55",
"]  c #FF4461",
"[  c #FF4A61",
"{  c #FF5B6C",
"}  c #E6566E",
"|  c #D66E61",
" . c #D67660",
".. c #FF707A",
"X. c #E96E79",
"o. c #D65A51",
"O. c #8CB800",
"+. c #96BA00",
"@. c #94B700",
"#. c #9CBD1B",
"$. c #B4A000",
"%. c #B3853D",
"&. c #B58A3D",
"*. c #BB983D",
"=. c #AD8C3A",
"-. c #97BA27",
";. c #99BC26",
":. c #9CB62A",
">. c #9DBC29",
",. c #9FBD31",
"<. c #9CA826",
"1. c #A2BD2B",
"2. c #A8B52F",
"3. c #ABAC33",
"4. c #B7A839",
"5. c #A0BE34",
"6. c #9F9630",
"7. c #C7B43C",
"8. c #98C125",
"9. c #A3C32B",
"0. c #ADC32E",
"q. c #A9CA2C",
"w. c #A7C82C",
"e. c #B0C72E",
"r. c #B7CB34",
"t. c #D8D919",
"y. c #DCDC2F",
"u. c #C1CD34",
"i. c #CEC33C",
"p. c #CDC134",
"a. c #D2C73D",
"s. c #C5D134",
"d. c #D4D43A",
"f. c #DADA3B",
"g. c #D9D83A",
"h. c #D8E039",
"j. c #E4E43E",
"k. c #E9E93F",
"l. c #AA8179",
"z. c #B2A449",
"x. c #D7904C",
"c. c #FFB454",
"v. c #FFBA57",
"b. c #FFBE59",
"n. c #E5B447",
"m. c #DD9168",
"M. c #B8C664",
"N. c #BCCA68",
"B. c #B9CA71",
"V. c #B0C255",
"C. c #DADA41",
"Z. c #D9CC51",
"A. c #E2C643",
"S. c #FFC25B",
"D. c #FFD154",
"F. c #FFD255",
"G. c #FFDD54",
"H. c #FFDC54",
"J. c #FFDF54",
"K. c #FFDD53",
"L. c #ECEB40",
"P. c #E6E640",
"I. c #FFE356",
"U. c #FFED5A",
"Y. c #FFEA59",
"T. c #FFE15A",
"R. c #FFF25C",
"E. c #E2DE71",
"W. c #E5E27D",
"Q. c #AD938D",
"!. c #C69B8B",
"~. c #CA9D89",
"^. c #EE9993",
"/. c #F88A8C",
"(. c #D2AE9E",
"). c #D3AA90",
"_. c #D9B297",
"`. c #DAB398",
"'. c #DFBB9F",
"]. c #F1A89B",
"[. c #DBBCAB",
"{. c #FFAAA3",
"}. c #E2BFA2",
"|. c #EFBBA1",
" X c #F8B7A8",
".X c #FFB9B0",
"XX c #DADCA9",
"oX c #E7C5A8",
"OX c #FCCBB8",
"+X c #FADFBE",
"@X c #FAD7BA",
"#X c #EDC7B3",
"$X c #D3E1A9",
"%X c #BACECC",
"&X c #BDD9D7",
"*X c #BBD1CE",
"=X c #FFD9C9",
"-X c #EBD5C3",
";X c #FDE4C3",
":X c #FFE9C7",
">X c #FFEAC8",
",X c #FFE6C8",
"<X c #FFF2CE",
"1X c #FFEBD8",
"2X c #FFF4D1",
"3X c #FFF1DD",
"4X c #E9E5C0",
"5X c #C7FCFC",
"6X c #CAFFFF",
"7X c #FFF6E2",
"8X c #FFF9E4",
"9X c #FFFFEE",
"0X c #FFFFF1",
/* pixels */
"                                                      f.f.f.0.>.>.>.                                      H.I.F.c.c.c.          ",
"                                                f.f.k.j.j.f.0.>.9.q.w.>.                              K.U.Y.I.F.c.v.S.c.        ",
"                                            f.j.j.f.f.f.f.f.0.>.>.>.>.9.q.>.                        I.I.H.H.I.F.c.c.c.c.S.c.    ",
"                                          f.L.f.f.f.f.f.f.f.0.>.>.>.>.>.>.9.9.                    H.I.H.H.H.H.F.c.c.c.c.c.S.    ",
"                                        f.j.f.f.f.f.f.f.f.f.0.>.>.>.>.>.>.>.>.q.                H.U.H.H.H.H.H.F.c.c.c.c.c.c.c.  ",
"                                      f.j.f.f.f.f.f.f.f.f.f.0.>.>.>.>.>.>.>.>.>.w.              H.H.H.H.H.H.H.F.c.c.c.c.c.c.S.  ",
"                                    f.L.f.f.f.f.f.f.f.f.f.f.0.>.>.>.>.>.>.>.>.>.>.>.            Y.H.H.H.H.H.H.F.c.c.c.c.c.c.b.c.",
"                                    f.f.f.f.f.f.f.f.f.f.f.f.0.>.>.>.>.>.>.>.>.>.>.q.>.        K.U.H.H.H.H.H.H.F.c.c.c.c.c.c.v.c.",
"                                  f.k.f.f.f.f.f.f.f.f.f.f.f.0.>.>.>.>.>.>.>.>.>.>.>.>.        H.U.H.H.H.H.H.H.F.c.c.c.c.c.c.c.c.",
"                                  f.f.f.f.f.f.f.f.f.f.f.f.f.0.>.>.>.>.>.>.>.>.>.>.>.q.          U.H.H.H.H.H.I.F.c.c.c.c.c.c.v.c.",
"                                  j.f.f.f.f.f.f.f.f.f.f.f.f.0.>.>.>.>.>.>.>.>.>.>.>.9.>.        I.H.H.H.H.H.H.F.c.c.c.c.c.c.b.c.",
"                  f.h.-.        f.k.f.f.f.f.f.f.f.f.f.f.f.f.0.>.>.>.>.>.>.>.>.>.>.>.>.>.        K.I.H.H.H.H.H.F.c.c.c.c.c.c.b.  ",
"                f.L.u.8.1.      f.j.f.f.f.f.f.f.f.f.f.f.f.h.0.>.>.>.>.>.>.>.>.>.>.>.>.>.          U.H.H.H.H.H.F.c.c.c.c.c.b.c.  ",
"                k.f.u.-.q.1.    f.j.f.f.f.f.f.f.f.f.f.f.f.7.6.:.>.>.>.>.>.>.>.>.>.>.>.9.          H.R.H.H.H.H.F.c.c.c.c.v.c.    ",
"              f.f.f.u.-.>.9.    f.j.f.f.f.f.f.f.f.f.f.f.7.: > u >.>.>.>.>.>.>.>.>.>.>.9.            H.U.I.H.H.F.c.c.c.S.c.      ",
"            f.k.f.f.u.-.>.9.1.  f.j.f.f.f.f.f.f.f.f.f.f.%.w 7 5 :.>.>.>.>.>.>.>.>.>.>.9.                H.I.U.T.b.S.c.c.        ",
"            j.f.f.f.u.-.>.>.q.  f.k.f.f.f.f.f.f.f.f.f.f.%.4 7 5 :.>.>.>.>.>.>.>.>.>.>.9.                      F.                ",
"          f.j.f.f.f.u.-.>.>.9.>.f.j.f.f.f.f.f.f.f.f.f.f.%.4 7 5 :.>.>.>.>.>.>.>.>.>.>.9.                                        ",
"          k.f.f.f.f.u.-.>.>.>.>.u.f.f.f.f.f.f.f.f.f.f.f.%.4 7 5 :.>.>.>.>.>.;.8.>.>.>.9.                                        ",
"        f.j.f.f.f.f.u.-.>.>.>.>.1.g.f.f.f.f.f.f.7.%.4.f.&.4 7 5 :.>.>.>.>.8.4.3.;.>.>.9.                                        ",
"        k.f.f.f.f.f.u.-.>.>.>.>.-.u.f.f.f.f.f.d.t 3 : *.%.4 7 5 :.>.>.>.;.x.V j ( ;.;.9.                                        ",
"      f.j.f.f.f.f.f.u.-.>.>.>.>.>.9.f.f.f.f.f.a.w t t w e t 2 5 :.>.>.;.) N ! v j ( -.9.                                        ",
"      j.f.f.f.f.f.f.u.-.>.>.>.>.>.-.s.f.f.f.f.f.*.1 t t e t 2 5 :.8.>._ N ! ! c v j o.1.                                        ",
"    f.j.f.f.f.f.f.f.u.-.>.>.>.>.>.>.0.f.f.f.f.f.f.*.1 t e t 2 6 -.2.` B ! ! f p v c j /                                         ",
"    f.f.f.f.f.f.f.f.u.-.>.>.>.>.>.>.>.d.f.f.f.f.f.f.*.1 t t 2 . 3.^ B ~ ! s {.^.p v c j j                     ! C               ",
"    k.f.f.f.f.f.f.f.u.-.>.>.>.>.>.>.-.r.f.f.f.f.f.f.f.*.3 t . r ! V ~ C d .X7X>X].p j v k j                 ! ] ] C             ",
"  f.j.f.f.f.f.f.f.f.u.-.>.>.>.>.>.>.>.9.f.f.f.f.f.f.f.f.y 9 P C C ~ V M OX8X1X;X>X Xh j v j k               ! ! ! !             ",
"  f.f.f.f.f.f.f.f.f.u.-.>.>.>.>.>.>.>.>.d.f.f.f.f.f.f.f.=.F ! C [ M ! =X8X3X3X;X;X>X#Xj h c j k             ! ! ] !             ",
"  j.f.f.f.f.f.f.f.f.u.-.>.>.>.>.>.>.>.-.s.f.f.f.f.f.f.f.) B ! [ g { =X8X3X3X3X;X;X;X>XOXD h n j Z j         ! ! ] !             ",
"  k.f.f.f.f.f.f.f.f.u.-.>.>.>.>.>.>.>.-.r.f.f.f.f.f.f.x.B ! [ d ..1X7X3X3X3X3X;X;X;X;X:X@X} p n j Z j       C ! ] !             ",
"f.k.f.f.f.f.f.f.f.f.u.-.>.>.>.>.>.>.>.>.e.f.f.f.f.f.' x ! [ s /.1X7X3X3X3X3X3X;X;X;X;X;X:X+XX.p n j z j     C ! ] !             ",
"f.j.f.f.f.f.f.f.f.f.u.-.>.>.>.>.>.>.>.>.9.f.f.f.g.` b ~ [ s ^.3X7X3X3X3X3X3X3X;X;X;X;X;X;X;X;X/.p n j z j   ! ! ] !             ",
"f.j.f.f.f.f.f.f.f.f.u.-.>.>.>.>.>.>.>.>.1.g.h.A.^ N ~ ! s {.7X3X3X3X3X3X3X3X3X;X;X;X;X;X;X;X;X:X^.p v l k j V ! ] !             ",
"f.j.f.f.f.f.f.f.f.f.u.-.>.>.>.>.>.>.>.>.1.g.A.! V ~ C d .X8X3X3X3X3X3X3X3X3X3X;X;X;X;X;X;X;X;X;X:X].p j v j j V ] C             ",
"f.j.f.f.f.f.f.f.f.f.u.-.>.>.>.>.>.>.>.>.8.n.V V ~ V M OX8X3X3X3X3X3X3X3X3X3X3X;X;X;X;X;X;X;X;X;X;X>X Xh j v j j S !             ",
"f.j.f.f.f.f.f.f.f.f.u.-.>.>.>.>.>.>.>.8.x.N C [ M ! =X8X3X3X3X3X3X3X3X3X3X3X3X;X;X;X;X;X;X;X;X;X;X;X>X#Xj h c j k m             ",
"f.j.f.f.f.f.f.f.f.f.u.-.>.>.>.>.>.>.8.x.N ! [ g { =X8X3X3X3X3X3X3X3X3X3X3X3X3X;X;X;X;X;X;X;X;X;X;X;X;X>XOXD h n j k j           ",
"f.k.f.f.f.f.f.f.f.f.u.-.>.>.>.>.;.;.) N ! [ d ..1X7X3X3X3X3X3X3X3X3X3X3X3X3X3X;X;X;X;X;X;X;X;X;X;X;X;X;X:X@X} p n j Z j         ",
"f.k.f.f.f.f.f.f.f.f.u.-.>.>.>.;.1._ N ! [ s /.1X7X3X3X3X3X3X3X3X3X3X3X3X3X3X3X;X;X;X;X;X;X;X;X;X;X;X;X;X;X:X=XX.p n j z j       ",
"  k.f.f.f.f.f.f.f.f.u.-.>.>.8.2.` B ! [ s ^.3X7X3X3X3X3X3X3X3X3X3X3X3X3X3X3X3X;X;X;X;X;X;X;X;X;X;X;X;X;X;X;X;X;X/.i n j k j     ",
"  f.f.f.f.f.f.f.f.f.u.-.>.;.3.^ B ~ ! s {.7X3X3X3X3X3X3X3X3X3X3X3X3X3X3X3X3X3X;X;X;X;X;X;X;X;X;X;X;X;X;X;X;X;X;X:X^.p l j k j   ",
"  f.j.f.f.f.f.f.f.f.u.-.>.;._ B ~ ! b .X8X3X3X3X7X8X8X8X8X8X8X8X8X7X3X3X3X3X3X;X;X;X>X>X>X>X>X>X>X>X>X>X>X;X;X;X;X:X].h l j k j ",
"  f.k.f.f.f.f.f.f.f.u.-.>.;.` N S g |.8X3X3X3X7X-X[.[.[.[.[.[.[.[.#X7X3X3X3X3X;X;X;XoX_.`.`._.`.`.`.`._.'.;X;X;X;X;X<X].p A z j ",
"    j.f.f.f.f.f.f.f.u.-.1.;.4.^ ` $.$X7X3X3X7X-X% + + + + + + + @ X #X8X3X3X3X;X:X).X , # # # # # # # , X m.;X;X;X;X2X<X  n j   ",
"    f.f.f.f.f.f.f.f.u.-.>.>.;.>.,.O.XX7X3X3X8X(.+ K H H H H H H K & !.8X3X3X3X;X;XW 8 L H K K K K K H H e I +X;X;X;X2X;X        ",
"    f.k.f.f.f.f.f.f.u.-.>.>.>.>.5.@.XX7X3X3X8X(.@ H e e e e e e H % !.7X3X3X3X;X;XE < H r * * * * * r H r Y +X;X;X;X2X;X        ",
"      f.f.f.f.f.f.f.u.-.>.>.>.>.5.@.4X8X3X3X8X(.+ H e e e e e e H % !.7X3X3X3X;X;XE 8 r T &X&X&X&X&Xl.0 e Y +X;X;X;X2X;X        ",
"      f.L.f.f.f.f.f.u.-.>.>.>.>.r.O.  0X3X3X8X(.+ H e e e e e e H % !.7X3X3X3X;X;XE 8 0 R 6X6X6X6X6XQ.; e Y +X;X;X;X2X;X        ",
"        f.j.f.f.f.f.u.-.>.>.>.9.5.  7X9X3X3X8X(.+ H e e e e e e H % !.7X3X3X3X;X;XE 8 q R 5X6X5X5X6XQ.- e Y +X;X;X;X2X;X        ",
"          f.j.f.f.f.u.-.>.>.9.>.    3X9X3X3X8X(.+ H e e e e e e H % !.7X3X3X3X;X;XE 8 q R 5X6X5X5X6XQ.- e Y +X;X;X;X2X;X        ",
"            f.L.f.f.u.-.1.q.>.      3X9X3X3X8X(.+ H e e e e e e H % !.7X3X3X3X;X;XE 8 0 R 6X6X6X6X6XQ.; e Y +X;X;X;X2X;X        ",
"              f.f.f.s.;.>.1.        3X9X3X3X8X(.+ H e e e e e e H % !.7X3X3X3X;X;XE 8 r T %X*X%X%X*XQ 0 e Y +X;X;X;X2X;X        ",
"                  x.*.y             3X9X3X3X8X(.+ H e e e e e e H % !.7X3X3X3X;X;XE < H r = O O = O q H r Y +X;X;X;X2X;X        ",
"                  | P G             3X9X3X3X8X(.+ H e e e e e e H % !.7X3X3X3X;X;XW 8 L H K K K K K H H r I +X;X;X;X2X;X        ",
"                   .U J             3X9X3X3X8X(.+ H e e e e e e H % !.7X3X3X3X;X:X_.@ , , , , , , , , , o ~.:X;X;X;X2X;X        ",
"                   .U J             3X9X3X3X8X(.+ H e e e e e e H % !.7X3X3X3X;X;X;XoX}.}.}.}.}.}.}.}.}.oX;X;X;X;X;X2X;X        ",
"                   .U J             3X9X3X3X8X(.+ H e e e e e e H % !.7X3X3X3X;X;X;X:X>X>X>X>X>X>X>X>X>X>X;X;X;X;X;X2X;X        ",
"                   .U J             3X9X3X3X8X(.+ H e e e e e e H % !.7X3X3X3X;X;X;X;X;X;X;X;X;X;X;X;X;X;X;X;X;X;X;X2X;X        ",
"                   .U J             3X9X3X3X8X(.+ L t t t t t t H % !.7X3X3X3X;X;X;X;X;X;X;X;X;X;X;X;X;X;X;X;X;X;X;X2X;X        ",
"                  | P G             7X0X7X3X8X(.X G w w w w w w H $ !.8X3X7X3X;X;X;X;X;X;X;X;X;X;X;X;X;X;X;X;X;X;X;X2X,X        ",
"  f.f.f.f.f.f.f.d.A.a.a.d.f.f.f.f.y.E.W.W.W.W.Z.p.i.i.i.i.i.i.i.3.<.V.B.B.B.B.M.M.M.M.M.M.M.M.M.M.M.M.M.M.M.M.M.M.M.N.V.#.>.>.  ",
"f.L.j.j.j.j.j.j.j.f.f.f.j.j.j.j.j.P.y.t.t.t.t.y.f.f.f.f.f.f.f.f.9.>.#.@.@.@.@.@.@.@.@.@.@.@.@.@.@.@.@.@.@.@.@.@.@.@.@.#.w.9.q.>.",
"f.f.f.f.f.f.f.f.f.f.f.f.f.f.f.f.f.f.f.C.C.C.C.f.f.f.f.f.f.f.f.g.1.>.>.,.,.,.,.>.>.>.>.>.>.>.>.1.>.>.>.>.>.>.>.1.>.>.>.>.>.>.>.>.",
"  f.f.f.f.f.f.f.f.f.f.f.f.f.f.f.f.f.f.f.f.f.f.f.f.f.f.f.f.f.f.g.1.>.>.>.>.>.>.>.>.>.>.>.>.>.>.>.>.>.>.>.>.>.>.>.>.>.>.>.>.>.>.  "
};
