/* XPM */
static char *_5da5c9f435b4cf4b13f278baaed9bb04p6uMIi7L7fITkBt[] = {
/* columns rows colors chars-per-pixel */
"64 64 145 2 ",
"   c None",
".  c #000000",
"X  c #0D0000",
"o  c #150001",
"O  c #190303",
"+  c #1E0805",
"@  c #230504",
"#  c #210A06",
"$  c #240D08",
"%  c #2F0F0A",
"&  c #310C09",
"*  c #33130D",
"=  c #3A150F",
"-  c #3F1A12",
";  c #401711",
":  c #451A13",
">  c #4C1C15",
",  c #531B16",
"<  c #5C1F19",
"1  c #552219",
"2  c #5D251C",
"3  c #5D291F",
"4  c #61251C",
"5  c #6F221E",
"6  c #62291F",
"7  c #71231F",
"8  c #5F2B20",
"9  c #632C21",
"0  c #6A2B21",
"q  c #752721",
"w  c #742921",
"e  c #792B23",
"r  c #6F3125",
"t  c #773226",
"y  c #793227",
"u  c #7C3629",
"i  c #7E3A2C",
"p  c #822C26",
"a  c #863027",
"s  c #873128",
"d  c #893229",
"f  c #813B2D",
"g  c #8B3B2E",
"h  c #92352C",
"j  c #9E342E",
"k  c #913E30",
"l  c #9F3B31",
"z  c #A83731",
"x  c #A43D32",
"c  c #A83F34",
"v  c #B73C37",
"b  c #B93D37",
"n  c #944535",
"m  c #9B4536",
"M  c #9A4837",
"N  c #AA4035",
"B  c #A54738",
"V  c #A64839",
"C  c #AB4C3C",
"Z  c #B14237",
"A  c #B44338",
"S  c #BC473B",
"D  c #BF483C",
"F  c #AE523F",
"G  c #C54B3E",
"H  c #CB4B3F",
"J  c #AF5340",
"K  c #B05441",
"L  c #B85744",
"P  c #CE4F41",
"I  c #D14F42",
"U  c #C45644",
"Y  c #C85745",
"T  c #C85846",
"R  c #CE5C49",
"E  c #D45143",
"W  c #D85244",
"Q  c #D55E4B",
"!  c #CD624D",
"~  c #D3664F",
"^  c #DE644F",
"/  c #DC624E",
"(  c #D46650",
")  c #D46750",
"_  c #D56750",
"`  c #D66750",
"'  c #D56750",
"]  c #DF6550",
"[  c #DF6550",
"{  c #DA6952",
"}  c #D96952",
"|  c #E0634F",
" . c #E1634F",
".. c #E0644F",
"X. c #E0634F",
"o. c #E06450",
"O. c #E16450",
"+. c #E26450",
"@. c #E36450",
"#. c #E26550",
"$. c #E36550",
"%. c #E46551",
"&. c #E46651",
"*. c #E46752",
"=. c #E76752",
"-. c #E36550",
";. c #E86752",
":. c #E36953",
">. c #E36A53",
",. c #E46A53",
"<. c #E36A54",
"1. c #E46B54",
"2. c #E56D55",
"3. c #E66D56",
"4. c #E76E56",
"5. c #E56B54",
"6. c #EA6853",
"7. c #E86C55",
"8. c #E96D56",
"9. c #EC6E57",
"0. c #EA6C56",
"q. c #E87058",
"w. c #E87158",
"e. c #E97158",
"r. c #EA7158",
"t. c #EA7159",
"y. c #EA7259",
"u. c #EB7259",
"i. c #EC7058",
"p. c #EF7259",
"a. c #EC735A",
"s. c #EE745A",
"d. c #EF745B",
"f. c #EB7259",
"g. c #F0745B",
"h. c #F0755B",
"j. c #F1755B",
"k. c #F1755C",
"l. c #F2765C",
"z. c #F3775D",
"x. c #F5775D",
"c. c #F1755C",
"v. c #F6785E",
"b. c #F9795F",
"n. c #F8795E",
/* pixels */
"  . . . . . . . . . . . . .       . . . . . . . . . . . . . . . . . . . . . . . . . . . . . .       . . . . . . . . . . . . .   ",
". O 2 2 2 2 2 6 9 9 9 9 9 . > E h . > 2 2 2 2 2 9 9 9 3 3 3 3 3 3 3 3 3 9 9 9 9 9 9 9 9 9 1 . h E > . 2 2 2 2 2 6 9 9 9 9 9 + . ",
". 2 / / / / / 1.a.u.u.u.u.3 . I s . U #./ / / ] u.u.u.u.u.u.u.u.u.u.u.u.u.u.u.u.u.u.u.u.g.! . d I X 1 / / / / / ,.a.u.u.u.u.9 . ",
". 2 / / / / / 1.a.u.u.u.u.3 X I d . U #./ / / ] u.u.u.u.u.u.u.u.u.u.u.u.u.u.u.u.u.u.u.u.g.! . d I o 1 / / / / / ,.a.u.u.u.u.9 . ",
". 2 / / / / / 1.a.u.u.u.u.3 X P d . U #./ / / ] u.u.u.u.u.u.u.u.u.u.u.u.u.u.u.u.u.u.u.u.g.! . d P o 1 / / / / / ,.a.u.u.u.u.9 . ",
". 6 / / / / / 1.a.u.u.u.u.3 X P d . U #./ / / ] u.u.u.u.u.u.u.u.u.u.u.u.u.u.u.u.u.u.u.u.g.! . d P o 1 / / / / / ,.a.u.u.u.u.9 . ",
"  R / / / / / 1.a.u.u.u.u.3 X P d . U #./ / / ] u.u.u.u.u.u.u.u.u.u.u.u.u.u.u.u.u.u.u.u.g.! . d P o 1 / / / / / ,.a.u.u.u.u.9 . ",
"  #./ / / / / 1.a.u.u.u.u.3 X P d . U #./ / / ] u.u.u.u.u.u.u.u.u.u.u.u.u.u.u.u.u.u.u.u.g.! . d P o 1 / / / / / ,.a.u.u.u.u.9 . ",
"  Q / / / / / 1.a.u.u.u.u.3 X P d . U #./ / / ] u.u.u.u.u.u.u.u.u.u.u.u.u.u.u.u.u.u.u.u.g.! . d P o 1 / / / / / ,.a.u.u.u.u.9 . ",
". w #./ / / / 1.a.u.u.u.u.3 X P d . U #./ / / ] u.u.u.u.u.u.u.u.u.u.u.u.u.u.u.u.u.u.u.u.g.! . d P o 1 / / / / / ,.a.u.u.u.u.9 . ",
". 1 / / / / / 1.a.u.u.u.u.3 X P d . U #./ / / ] u.u.u.u.u.u.u.u.u.u.u.u.u.u.u.u.u.u.u.u.g.! . d P o 1 / / / / / ,.a.u.u.u.u.9 . ",
". 2 / / / / / <.u.u.u.u.u.3 o P d . U #./ / / ^ u.u.u.u.u.u.u.u.u.u.u.u.u.u.u.u.u.u.u.u.d.! . d P o 1 / / / / / >.u.u.u.u.u.9 . ",
". 2 #.#.#.#.| 8.k.d.d.g.d.3 X P d . U *.| #.| *.g.g.g.g.g.g.g.g.g.g.g.g.g.g.g.g.g.g.g.d.x.~ . d P o 1 ..#.#.#.| 8.k.d.d.g.d.9 . ",
". # t y t t t u f i i f i . & E d . 0 y t t t y i i i i i i i i i i i i i i i i i i i i f r . d E & . t y t t t u f i i f i $ . ",
"  @ . . . . . . . . . . . . x E G , . . . . . . . . . . . . . . . . . . . . . . . . . . . . , G E x . . . . . . . . . . . . @   ",
"  S b b b b v D G G G G G P E I E I G G G G G G G G G G G G G G G G G G G G G G G G G G G G I E I E P G G G G G G G G G G G P   ",
"  p 5 7 7 7 7 q e e e e e w w w w w e e e e e e e e e e e e S E E S e e e e e e e e e e e e w w w w w e e e e e e e e e e e d   ",
". . . . . . . . . . . . . . . . . . . . . . . . . . . . . . O G G O . . . . . . . . . . . . . . . . . . . . . . . . . . . . . . ",
". 1 U T T T Y ! ( ~ ~ ~ ~ ~ ~ ~ ~ ~ ~ ~ ~ ~ ~ ~ ( ( ( ~ { g . S S . u R U T T U ~ ( ~ ~ ~ ~ ~ ~ ~ ~ ~ ~ ~ ~ ( ( ( ( ( ( ( ~ 2 . ",
". 4 #.#.#.#.| 8.k.d.g.g.g.g.g.g.g.g.g.g.g.g.g.g.g.g.g.d.v.M . D S . g ;.| #.#.| a.g.g.g.g.g.g.g.g.g.g.g.g.g.g.g.g.d.d.d.g.g.9 . ",
". 2 / / / / / <.u.u.u.u.u.u.u.u.u.u.u.u.u.u.u.u.u.u.u.w.g.n . D D . g #./ / / / 4.u.u.u.u.u.u.u.u.u.u.u.u.u.u.u.u.u.u.u.u.u.9 . ",
". 2 / / / / / 1.a.u.u.u.u.u.u.u.u.u.u.u.u.u.u.u.u.u.u.u.k.n . D D . g #./ / / / 4.a.u.u.u.u.u.u.u.u.u.u.u.u.u.u.u.u.u.u.u.u.9 . ",
". 2 / / / / / 1.a.u.u.u.u.u.u.u.u.u.u.u.u.u.u.u.u.u.u.u.k.n . D D . g #./ / / / 4.a.u.u.u.u.u.u.u.u.u.u.u.u.u.u.u.u.u.u.u.u.9 . ",
". 2 / / / / / 1.a.u.u.u.u.u.u.u.u.u.u.u.u.u.u.u.u.u.u.u.k.n . D D . g #./ / / / 4.a.u.u.u.u.u.u.u.u.u.u.u.u.u.u.u.u.u.u.u.u.9 . ",
". 2 / / / / / 1.a.u.u.u.u.u.u.u.u.u.u.u.u.u.u.u.u.u.u.u.k.n . S D . g #./ / / / 4.a.u.u.u.u.u.u.u.u.u.u.u.u.u.u.u.u.u.u.u.u.9 . ",
". 2 / / / / / 1.a.u.u.u.u.u.u.u.u.u.u.u.u.u.u.u.u.u.u.u.k.n . D S . g #./ / / / 4.a.u.u.u.u.u.u.u.u.u.u.u.u.u.u.u.u.u.u.u.u.9 . ",
". 2 / / / / / 1.a.u.u.u.u.u.u.u.u.u.u.u.u.u.u.u.u.u.u.u.k.n . S S . g #./ / / / 4.a.u.u.u.u.u.u.u.u.u.u.u.u.u.u.u.u.u.u.u.u.9 . ",
". 2 / / / / / >.u.u.u.u.u.u.u.u.u.u.u.u.u.u.u.u.u.u.u.u.g.n . S D . g #./ / / / 4.u.u.u.u.u.u.u.u.u.u.u.u.u.u.u.u.u.u.u.u.u.9 . ",
". 4 *.*.*.*.#.9.k.k.k.k.k.k.k.k.k.k.k.k.k.k.k.k.k.k.k.g.b.M . D D . k 6.#.*.*.#.a.k.k.k.k.k.k.k.k.k.k.k.k.k.k.k.k.k.k.k.k.k.9 . ",
". : B V V V B C K K K K J J J K K K K K K K K K K K K J L r . D D . 0 C B V V B F K K K K J J J K K K K K K K K K K K K K K > . ",
"X . . . . . . . . . . . . . . . . . . . . . . . . . . . . . < P P < . . . . . . . . . . . . . . . . . . . . . . . . . . . . . X ",
"  z j j j j j x N c c c c c x l l x c c c c c c c c c c c N P E E P N c c c x x x x c c c c x l l x c c c c c c c c c c c c Z   ",
"  z j j j j j x N c c c c A E E W G c c c c c c c c c c c c x l l x c c c N H I I D c N N c G W E E A x c c c c c c c c c c Z   ",
"X . . . . . . . . . . . . . p E Z . . . . . . . . . . . . . . . . . . . . . m #.Q # . . . . . Z E p . . . . . . . . . . . . . X ",
". : B V V V B C K K K K K - o I s . k C V V B C K K J K K K K K K K K K K K <.d.d.! F K L M . s I o = B V V V B C K K K K K > . ",
". 4 *.*.*.*.#.9.k.k.k.k.k.8 o P d . T 6.#.*.#.,.k.k.k.k.k.k.k.k.k.k.k.k.k.k.a.u.u.g.k.g.b.~ . d P o 2 #.*.*.*.#.8.k.k.k.k.k.9 . ",
". 2 / / / / / >.u.u.u.u.u.3 X P d . U ../ / / ^ u.u.u.u.u.u.u.u.u.u.u.u.u.u.u.u.u.u.u.u.d.! . d P o 1 / / / / / >.u.u.u.u.u.9 . ",
". 2 / / / / / 1.a.u.u.u.u.3 X P d . U #./ / / ] u.u.u.u.u.u.u.u.u.u.u.u.u.u.u.u.u.u.u.u.g.! . d P o 1 / / / / / ,.a.u.u.u.u.9 . ",
". 2 / / / / / 1.a.u.u.u.u.3 X P d . U #./ / / ] u.u.u.u.u.u.u.u.u.u.u.u.u.u.u.u.u.u.u.u.g.! . d P o 1 / / / / / ,.a.u.u.u.u.9 . ",
". 2 / / / / / 1.a.u.u.u.u.3 X P d . U #./ / / ] u.u.u.u.u.u.u.u.u.u.u.u.u.u.u.u.u.u.u.u.g.! . d P o 1 / / / / / ,.a.u.u.u.u.9 . ",
". 2 / / / / / 1.a.u.u.u.u.3 X P d . U #./ / / ] u.u.u.u.u.u.u.u.u.u.u.u.u.u.u.u.u.u.u.u.g.! . d I o 1 / / / / / ,.a.u.u.u.u.9 . ",
". 2 / / / / / 1.a.u.u.u.u.3 X P d . U #./ / / ] u.u.u.u.u.u.u.u.u.u.u.u.u.u.u.u.u.u.u.u.g.! . d I o 1 / / / / / ,.a.u.u.u.u.9 . ",
". 2 / / / / / 1.a.u.u.u.u.3 X P d . U #./ / / ] u.u.u.u.u.u.u.u.u.u.u.u.u.u.u.u.u.u.u.u.g.! . d P o 1 / / / / / ,.a.u.u.u.u.9 . ",
". 2 / / / / / <.u.u.u.u.u.3 X P d . U #./ / / ^ u.u.u.u.u.u.u.u.u.u.u.u.u.u.u.u.u.u.u.u.d.! . d P o 1 / / / / / >.u.u.u.u.u.9 . ",
". 4 #.#.#.#.| 8.k.d.d.g.d.3 o P d . U *.| #.| *.g.g.g.g.g.g.g.g.g.g.g.g.g.g.g.g.g.d.d.d.x.~ . d P o 1 ..#.#.#.| 8.k.d.d.g.g.9 . ",
". 1 U T T T U ! ( ( ( ( ~ 1 X P a . C R U T U T ~ ~ ~ ~ ~ ~ ~ ~ ~ ~ ~ ~ ~ ~ ( ( ( ( ( ( { L . s P X > U T T T U R ( ( ( ( ~ 2 . ",
". . . . . . . . . . . . . . 4 E l . . . . . . . . . . . . . . . . . . . . . . . . . . . . . . l E 4 . . . . . . . . . . . . . . ",
"  p 5 7 7 7 7 q e e e e w d G E E x w e e e e e e e e e e e w w w w e e e e e e e e e e e w x E E G d w e e e e e e e e e e d   ",
"  S b b b b v D G G G G G G G D G G G G G G G G G G G G G G E E E E G G G G G G G G G G G G G G D G G G G G G G G G G G G G P   ",
"  @ . . . . . . . . . . . . . . . . . . . . . . . . . . . . d P P d . . . . . . . . . . . . . . . . . . . . . . . . . . . . @   ",
". # t y t t t u i i i i i i i i i i i i i i i i f f f i f : . D D . ; y t y y t i f i i i i i i i i i i i i i i i i i i f i $ . ",
". 2 #.#.#.#.| 8.k.d.d.d.d.d.d.d.d.d.d.d.d.g.g.g.g.g.g.d.x.n . S S . g *.| #.#.| a.g.d.d.d.d.d.d.d.d.d.d.d.d.d.d.d.g.g.d.g.d.9 . ",
". 2 / / / / / <.u.u.u.u.u.u.u.u.u.u.u.u.u.u.u.u.u.u.u.u.g.n . D D . g #./ / / / 4.u.u.u.u.u.u.u.u.u.u.u.u.u.u.u.u.u.u.u.u.u.9 . ",
". 2 / / / / / 1.a.u.u.u.u.u.u.u.u.u.u.u.u.u.u.u.u.u.u.u.k.n . D D . g #./ / / / 4.a.u.u.u.u.u.u.u.u.u.u.u.u.u.u.u.u.u.u.u.u.9 . ",
". 2 / / / / / 1.a.u.u.u.u.u.u.u.u.u.u.u.u.u.u.u.u.u.u.u.k.n . D D . g #./ / / / 4.a.u.u.u.u.u.u.u.u.u.u.u.u.u.u.u.u.u.u.u.u.9 . ",
". 2 / / / / / 1.a.u.u.u.u.u.u.u.u.u.u.u.u.u.u.u.u.u.u.u.k.n . D D . g #./ / / / 4.a.u.u.u.u.u.u.u.u.u.u.u.u.u.u.u.u.u.u.u.u.9 . ",
". 2 / / / / / 1.a.u.u.u.u.u.u.u.u.u.u.u.u.u.u.u.u.u.u.u.k.n . D D . g #./ / / / 4.a.u.u.u.u.u.u.u.u.u.u.u.u.u.u.u.u.u.u.u.u.9 . ",
". 2 / / / / / 1.a.u.u.u.u.u.u.u.u.u.u.u.u.u.u.u.u.u.u.u.k.n . D D . g #./ / / / 4.a.u.u.u.u.u.u.u.u.u.u.u.u.u.u.u.u.u.u.u.u.9 . ",
". 2 / / / / / 1.a.u.u.u.u.u.u.u.u.u.u.u.u.u.u.u.u.u.u.u.k.n . D D . g #./ / / / 4.a.u.u.u.u.u.u.u.u.u.u.u.u.u.u.u.u.u.u.u.u.9 . ",
". 2 / / / / / 1.a.u.u.u.u.u.u.u.u.u.u.u.u.u.u.u.u.u.u.u.k.n . D D . g #./ / / / 4.u.u.u.u.u.u.u.u.u.u.u.u.u.u.u.u.u.u.u.u.u.9 . ",
". 2 / / / / / 1.u.u.u.u.u.u.u.u.u.u.u.u.u.u.u.u.u.u.u.u.k.n . D D . g #./ / / / 4.a.u.u.u.u.u.u.u.u.u.u.u.u.u.u.u.u.u.u.u.u.9 . ",
". 2 / / / / / 1.d.a.u.u.u.u.u.u.u.u.u.u.u.u.u.u.u.u.u.u.g.n . D D . g #./ / / / 4.u.u.u.u.u.u.u.u.u.u.u.u.u.u.u.u.u.u.u.u.u.9 . ",
". O 2 2 2 0 Q 1.<.t 9 9 9 9 9 9 3 3 3 3 3 3 3 9 9 9 9 9 9 * . G G . % 2 2 2 2 2 9 9 9 9 3 3 3 3 3 3 3 3 3 9 9 9 9 9 9 9 9 9 + . ",
"  . . . . .       . . . . . . . . . . . . . . . . . . . . .         . . . . . . . . . . . . . . . . . . . . . . . . . . . . .   "
};
